<svg xmlns="http://www.w3.org/2000/svg" xmlns:xlink="http://www.w3.org/1999/xlink" width="500" zoomAndPan="magnify" viewBox="0 0 375 374.999991" height="500" preserveAspectRatio="xMidYMid meet" version="1.0"><defs><clipPath id="ebb060909a"><path d="M 24.375 1 L 350.625 1 L 350.625 375 L 24.375 375 Z M 24.375 1 " clip-rule="nonzero"/></clipPath><clipPath id="a3f004f223"><path d="M 371.25 371.25 L 375 371.25 L 375 375 L 371.25 375 Z M 371.25 371.25 " clip-rule="nonzero"/></clipPath></defs><g clip-path="url(#ebb060909a)"><path fill="#5478f9" d="M 24.148438 36.332031 L 24.148438 141.675781 C 24.148438 167.628906 52.246094 183.847656 74.71875 170.867188 L 88.460938 162.933594 C 75.695312 131.722656 85.902344 95.429688 113.492188 75.582031 C 117.96875 72.351562 124.214844 73.363281 127.449219 77.839844 C 127.644531 78.113281 127.820312 78.394531 127.984375 78.6875 L 128.007812 78.6875 C 130.582031 83.144531 129.351562 88.824219 125.167969 91.824219 C 103.042969 107.742188 96.230469 137.71875 110.214844 161.9375 C 124.199219 186.160156 153.585938 195.230469 178.433594 184.03125 C 183.207031 181.886719 188.824219 183.78125 191.324219 188.375 C 191.449219 188.597656 191.5625 188.824219 191.664062 189.054688 C 193.933594 194.097656 191.675781 200.023438 186.640625 202.289062 C 155.65625 216.253906 119.109375 206.929688 98.460938 180.265625 L 81.792969 189.894531 C 46.121094 210.5 24.148438 248.566406 24.148438 289.757812 L 24.148438 374.175781 L 130.007812 374.175781 C 144.601562 374.175781 156.429688 362.34375 156.429688 347.75 L 156.429688 263.808594 L 191.714844 263.808594 C 224.199219 263.808594 252.203125 258.488281 275.738281 247.882812 C 299.605469 236.941406 317.996094 221.699219 330.921875 202.140625 C 343.851562 182.585938 350.320312 159.386719 350.320312 132.535156 C 350.320312 105.6875 343.851562 82.488281 330.921875 62.933594 C 317.996094 43.042969 299.605469 27.773438 275.738281 17.167969 C 252.203125 6.5625 224.199219 1.265625 191.714844 1.265625 L 59.210938 1.265625 C 39.847656 1.265625 24.148438 16.964844 24.148438 36.332031 Z M 226.988281 54.871094 C 240.246094 55.796875 252.789062 63.085938 259.960938 75.507812 C 271.433594 95.382812 264.683594 120.625 244.808594 132.097656 L 235.390625 137.511719 L 223.128906 116.292969 C 221.8125 114.015625 218.929688 113.230469 216.648438 114.546875 C 214.359375 115.863281 213.585938 118.773438 214.898438 121.054688 L 227.160156 142.273438 L 214.851562 149.386719 L 202.589844 128.140625 C 201.273438 125.863281 198.386719 125.101562 196.109375 126.417969 C 193.828125 127.734375 193.046875 130.621094 194.359375 132.902344 L 206.621094 154.121094 L 194.3125 161.234375 L 182.074219 140.015625 C 180.761719 137.734375 177.847656 136.949219 175.570312 138.265625 C 173.289062 139.582031 172.53125 142.492188 173.84375 144.773438 L 186.082031 165.992188 L 176.6875 171.40625 C 156.8125 182.878906 131.570312 176.132812 120.09375 156.257812 C 108.621094 136.382812 115.394531 111.140625 135.269531 99.664062 L 144.664062 94.25 L 156.925781 115.46875 C 158.238281 117.746094 161.128906 118.53125 163.40625 117.21875 C 165.683594 115.902344 166.46875 112.988281 165.152344 110.710938 L 152.894531 89.492188 L 165.203125 82.378906 L 177.464844 103.621094 C 178.78125 105.898438 181.667969 106.660156 183.945312 105.34375 C 186.222656 104.027344 187.007812 101.144531 185.695312 98.863281 L 173.433594 77.644531 L 185.742188 70.53125 L 198.003906 91.75 C 199.320312 94.027344 202.207031 94.8125 204.484375 93.496094 C 206.761719 92.179688 207.546875 89.269531 206.230469 86.992188 L 193.972656 65.773438 L 203.367188 60.332031 C 210.820312 56.03125 219.035156 54.316406 226.988281 54.871094 Z M 226.988281 54.871094 " fill-opacity="1" fill-rule="nonzero"/></g><g clip-path="url(#a3f004f223)"><path fill="#ffffff" d="M 371.25 371.25 L 375 371.25 L 375 375 L 371.25 375 Z M 371.25 371.25 " fill-opacity="1" fill-rule="nonzero"/></g></svg>